<?xml version="1.0" encoding="UTF-8" standalone="no"?>
<!DOCTYPE svg PUBLIC "-//W3C//DTD SVG 1.1//EN" "http://www.w3.org/Graphics/SVG/1.1/DTD/svg11.dtd">
<svg version="1.1" xmlns="http://www.w3.org/2000/svg" xmlns:xlink="http://www.w3.org/1999/xlink" preserveAspectRatio="xMidYMid meet" viewBox="0 0 300 300" width="300" height="300"><defs><path d="M80.76 150.68C80.76 150.68 80.76 150.68 80.76 150.68C163.79 67.64 209.93 21.51 219.15 12.28C219.15 12.28 219.15 12.28 219.15 12.28C260.67 53.8 283.74 76.87 288.35 81.48C288.35 81.48 288.35 81.48 288.35 81.48C205.31 164.52 159.18 210.65 149.95 219.88C149.95 219.88 149.95 219.88 149.95 219.88C108.43 178.36 85.37 155.29 80.76 150.68Z" id="j187c5nfwl"></path><path d="M150.02 219.76C150.02 219.76 150.02 219.76 150.02 219.76C66.98 136.72 20.84 90.58 11.62 81.36C11.62 81.36 11.62 81.36 11.62 81.36C53.14 39.84 76.2 16.77 80.82 12.16C80.82 12.16 80.82 12.16 80.82 12.16C163.86 95.2 209.99 141.33 219.21 150.56C219.21 150.56 219.21 150.56 219.21 150.56C177.7 192.08 154.63 215.14 150.02 219.76Z" id="b446dbqygK"></path><path d="M80.71 218.64C80.71 218.64 80.71 218.64 80.71 218.64C163.75 135.6 209.88 89.47 219.11 80.25C219.11 80.25 219.11 80.25 219.11 80.25C260.63 121.76 283.69 144.83 288.31 149.44C288.31 149.44 288.31 149.44 288.31 149.44C205.27 232.48 159.13 278.62 149.91 287.84C149.91 287.84 149.91 287.84 149.91 287.84C108.39 246.32 85.32 223.26 80.71 218.64Z" id="cCcWm0Jo8"></path><path d="M150.06 287.72C150.06 287.72 150.06 287.72 150.06 287.72C67.02 204.68 20.89 158.55 11.66 149.32C11.66 149.32 11.66 149.32 11.66 149.32C53.18 107.8 76.25 84.73 80.86 80.12C80.86 80.12 80.86 80.12 80.86 80.12C163.9 163.16 210.03 209.29 219.26 218.52C219.26 218.52 219.26 218.52 219.26 218.52C177.74 260.04 154.67 283.1 150.06 287.72Z" id="d3kHWY6dXT"></path><path d="M11.52 149.17L80.68 218.32L80.68 150.47L11.52 81.31L11.52 149.17Z" id="aYtvzmYh"></path><path d="M149.84 287.81L80.68 218.32L80.68 150.47L149.84 219.63L149.84 287.81Z" id="h2ncJVDd7D"></path><path d="M288.48 149.17L218.99 218.32L218.99 150.47L288.48 81.31L288.48 149.17Z" id="f5v0eYawQN"></path><path d="M218.99 150.47L218.99 218.32L149.84 287.81L149.84 219.63L218.99 150.47Z" id="a4nj6QYFi"></path><path d="M80.68 12.16L80.68 80.01" id="k1c4Tq7D8R"></path><path d="M218.99 12.16L218.99 80.01" id="cki9eGRtD"></path><path d="M149.84 80.99L149.84 149.49" id="aeTHnH3GZ"></path></defs><g><g><g><use xlink:href="#j187c5nfwl" opacity="1" fill="#000000" fill-opacity="0"></use><g><use xlink:href="#j187c5nfwl" opacity="1" fill-opacity="0" stroke="#ffffff" stroke-width="2" stroke-opacity="1"></use></g></g><g><use xlink:href="#b446dbqygK" opacity="1" fill="#000000" fill-opacity="0"></use><g><use xlink:href="#b446dbqygK" opacity="1" fill-opacity="0" stroke="#ffffff" stroke-width="2" stroke-opacity="1"></use></g></g><g><use xlink:href="#cCcWm0Jo8" opacity="1" fill="#000000" fill-opacity="0"></use><g><use xlink:href="#cCcWm0Jo8" opacity="1" fill-opacity="0" stroke="#ffffff" stroke-width="2" stroke-opacity="1"></use></g></g><g><use xlink:href="#d3kHWY6dXT" opacity="1" fill="#000000" fill-opacity="0"></use><g><use xlink:href="#d3kHWY6dXT" opacity="1" fill-opacity="0" stroke="#ffffff" stroke-width="2" stroke-opacity="1"></use></g></g><g><use xlink:href="#aYtvzmYh" opacity="1" fill="#000000" fill-opacity="0"></use><g><use xlink:href="#aYtvzmYh" opacity="1" fill-opacity="0" stroke="#ffffff" stroke-width="2" stroke-opacity="1"></use></g></g><g><use xlink:href="#h2ncJVDd7D" opacity="1" fill="#000000" fill-opacity="0"></use><g><use xlink:href="#h2ncJVDd7D" opacity="1" fill-opacity="0" stroke="#ffffff" stroke-width="2" stroke-opacity="1"></use></g></g><g><use xlink:href="#f5v0eYawQN" opacity="1" fill="#000000" fill-opacity="0"></use><g><use xlink:href="#f5v0eYawQN" opacity="1" fill-opacity="0" stroke="#ffffff" stroke-width="2" stroke-opacity="1"></use></g></g><g><use xlink:href="#a4nj6QYFi" opacity="1" fill="#000000" fill-opacity="0"></use><g><use xlink:href="#a4nj6QYFi" opacity="1" fill-opacity="0" stroke="#ffffff" stroke-width="2" stroke-opacity="1"></use></g></g><g><use xlink:href="#k1c4Tq7D8R" opacity="1" fill="#000000" fill-opacity="0"></use><g><use xlink:href="#k1c4Tq7D8R" opacity="1" fill-opacity="0" stroke="#ffffff" stroke-width="2" stroke-opacity="1"></use></g></g><g><use xlink:href="#cki9eGRtD" opacity="1" fill="#000000" fill-opacity="0"></use><g><use xlink:href="#cki9eGRtD" opacity="1" fill-opacity="0" stroke="#ffffff" stroke-width="2" stroke-opacity="1"></use></g></g><g><use xlink:href="#aeTHnH3GZ" opacity="1" fill="#000000" fill-opacity="0"></use><g><use xlink:href="#aeTHnH3GZ" opacity="1" fill-opacity="0" stroke="#ffffff" stroke-width="2" stroke-opacity="1"></use></g></g></g></g></svg>