<?xml version="1.0" encoding="UTF-8" standalone="no"?>
<!DOCTYPE svg PUBLIC "-//W3C//DTD SVG 1.1//EN" "http://www.w3.org/Graphics/SVG/1.1/DTD/svg11.dtd">
<svg xmlns="http://www.w3.org/2000/svg" xmlns:xlink="http://www.w3.org/1999/xlink" version="1.1" preserveAspectRatio="xMidYMid meet" viewBox="0 0 465 639" width="465" height="639"><defs><path d="M-569.35 132.45C-581.45 132.45 -593.29 135.97 -603.44 142.57C-607.22 145.04 -626.14 157.36 -660.19 179.54C-663.72 174.28 -691.99 132.17 -695.52 126.91C-685.55 106.61 -680 95.33 -678.9 93.07C-678.72 93.07 -678.54 93.09 -678.36 93.09C-666.61 93.09 -654.91 86.63 -649.14 74.88C-646.4 69.32 -624.56 24.87 -621.83 19.31C-618.45 12.44 -621.28 4.14 -628.15 0.77C-635.02 -2.61 -643.32 0.22 -646.69 7.09C-649.42 12.65 -671.27 57.11 -674 62.67C-675.19 65.08 -678.09 66.04 -680.46 64.87C-682.86 63.69 -683.84 60.79 -682.67 58.4C-679.94 52.84 -658.09 8.39 -655.36 2.83C-651.99 -4.04 -654.82 -12.34 -661.69 -15.71C-668.56 -19.09 -676.85 -16.26 -680.23 -9.39C-682.96 -3.83 -704.81 40.63 -707.54 46.18C-713.27 57.84 -711.35 71.29 -703.75 80.83C-705.42 84.23 -718.78 111.42 -720.45 114.82C-728.75 116.12 -736.7 121.69 -740.72 133C-742.63 138.35 -741.84 144.29 -738.67 149C-733.51 156.7 -692.15 218.31 -686.98 226.01C-682.34 232.92 -674.73 236.66 -666.98 236.66C-662.5 236.66 -657.97 235.41 -653.94 232.81C-650.1 230.33 -630.88 217.91 -596.3 195.57C-596.3 434.62 -596.29 567.42 -596.29 593.98C-596.29 616.08 -571.48 632.38 -548.2 616.55C-542.06 612.37 -538.52 605.31 -538.52 597.89C-538.52 582.24 -538.52 503.98 -538.52 363.12C-537.27 363.12 -527.3 363.12 -526.05 363.12C-526.05 503.98 -526.05 582.24 -526.05 597.89C-526.05 605.31 -522.51 612.37 -516.38 616.55C-493.09 632.38 -468.29 616.08 -468.29 593.98C-468.34 553.52 -468.75 229.86 -468.8 189.4C-468.8 186.63 -466.56 184.38 -463.79 184.37C-461.01 184.36 -458.75 186.59 -458.74 189.37C-458.65 207.05 -457.94 348.51 -457.85 366.2C-457.78 379.45 -447.02 390.14 -433.78 390.14C-433.74 390.14 -433.7 390.14 -433.66 390.14C-420.36 390.08 -409.64 379.25 -409.71 365.95C-409.77 354.17 -410.07 295.22 -410.6 189.13C-427.74 151.34 -446.73 132.45 -467.56 132.45C-477.74 132.45 -559.17 132.45 -569.35 132.45Z" id="bnF8NCLfl"/><path d="M-569.35 132.45C-581.45 132.45 -593.29 135.97 -603.44 142.57C-607.22 145.04 -626.14 157.36 -660.19 179.54C-663.72 174.28 -691.99 132.17 -695.52 126.91C-685.55 106.61 -680 95.33 -678.9 93.07C-678.72 93.07 -678.54 93.09 -678.36 93.09C-666.61 93.09 -654.91 86.63 -649.14 74.88C-646.4 69.32 -624.56 24.87 -621.83 19.31C-618.45 12.44 -621.28 4.14 -628.15 0.77C-635.02 -2.61 -643.32 0.22 -646.69 7.09C-649.42 12.65 -671.27 57.11 -674 62.67C-675.19 65.08 -678.09 66.04 -680.46 64.87C-682.86 63.69 -683.84 60.79 -682.67 58.4C-679.94 52.84 -658.09 8.39 -655.36 2.83C-651.99 -4.04 -654.82 -12.34 -661.69 -15.71C-668.56 -19.09 -676.85 -16.26 -680.23 -9.39C-682.96 -3.83 -704.81 40.63 -707.54 46.18C-713.27 57.84 -711.35 71.29 -703.75 80.83C-705.42 84.23 -718.78 111.42 -720.45 114.82C-728.75 116.12 -736.7 121.69 -740.72 133C-742.63 138.35 -741.84 144.29 -738.67 149C-733.51 156.7 -692.15 218.31 -686.98 226.01C-682.34 232.92 -674.73 236.66 -666.98 236.66C-662.5 236.66 -657.97 235.41 -653.94 232.81C-650.1 230.33 -630.88 217.91 -596.3 195.57C-596.3 434.62 -596.29 567.42 -596.29 593.98C-596.29 616.08 -571.48 632.38 -548.2 616.55C-542.06 612.37 -538.52 605.31 -538.52 597.89C-538.52 582.24 -538.52 503.98 -538.52 363.12C-537.27 363.12 -527.3 363.12 -526.05 363.12C-526.05 503.98 -526.05 582.24 -526.05 597.89C-526.05 605.31 -522.51 612.37 -516.38 616.55C-493.09 632.38 -468.29 616.08 -468.29 593.98C-468.34 553.52 -468.75 229.86 -468.8 189.4C-468.8 186.63 -466.56 184.38 -463.79 184.37C-461.01 184.36 -458.75 186.59 -458.74 189.37C-458.65 207.05 -457.94 348.51 -457.85 366.2C-457.78 379.45 -447.02 390.14 -433.78 390.14C-433.74 390.14 -433.7 390.14 -433.66 390.14C-420.36 390.08 -409.64 379.25 -409.71 365.95C-409.77 354.17 -410.07 295.22 -410.6 189.13C-427.74 151.34 -446.73 132.45 -467.56 132.45C-477.74 132.45 -559.17 132.45 -569.35 132.45Z" id="afaEEDJ5Q"/><path d="M216.16 45.75C216.93 46.29 223.16 50.64 223.94 51.18C225.69 52.41 228.1 51.98 229.32 50.22C231.75 46.71 236.19 43.43 241.1 43.43C246.32 43.43 252.04 46.57 252.04 53.13C252.04 64.15 234.41 68.31 228.63 74.46C225.26 78.04 223.89 82.01 223.42 86.99C223.21 89.27 225 91.22 227.27 91.22C228.36 91.22 237.12 91.22 238.21 91.22C239.91 91.22 241.4 90.12 241.9 88.5C242.15 87.67 242.53 86.92 243.04 86.23C249.43 77.5 271.3 76.34 271.3 53.26C271.29 35.87 258.84 25.56 241.93 25.56C230.87 25.56 220.49 30.36 214.86 39.51C213.57 41.6 214.14 44.34 216.16 45.75Z" id="c3ZvBUHCs"/><path d="M216.16 45.75C216.93 46.29 223.16 50.64 223.94 51.18C225.69 52.41 228.1 51.98 229.32 50.22C231.75 46.71 236.19 43.43 241.1 43.43C246.32 43.43 252.04 46.57 252.04 53.13C252.04 64.15 234.41 68.31 228.63 74.46C225.26 78.04 223.89 82.01 223.42 86.99C223.21 89.27 225 91.22 227.27 91.22C228.36 91.22 237.12 91.22 238.21 91.22C239.91 91.22 241.4 90.12 241.9 88.5C242.15 87.67 242.53 86.92 243.04 86.23C249.43 77.5 271.3 76.34 271.3 53.26C271.29 35.87 258.84 25.56 241.93 25.56C230.87 25.56 220.49 30.36 214.86 39.51C213.57 41.6 214.14 44.34 216.16 45.75Z" id="g3tKE9v3vl"/><path d="M222.99 110.28C222.99 115.73 227.41 120.15 232.86 120.15C238.31 120.15 242.73 115.73 242.73 110.28C242.73 104.83 238.31 100.41 232.86 100.41C227.41 100.41 222.99 104.83 222.99 110.28Z" id="b1Obe2cjKo"/><path d="M222.99 110.28C222.99 115.73 227.41 120.15 232.86 120.15C238.31 120.15 242.73 115.73 242.73 110.28C242.73 104.83 238.31 100.41 232.86 100.41C227.41 100.41 222.99 104.83 222.99 110.28Z" id="b4zWDA0ZL"/><path d="M419.99 183.75C419.99 183.75 419.99 183.75 419.99 183.75C446.11 209.38 460.63 223.62 463.53 226.47C463.53 226.47 463.53 226.47 463.53 226.47C411.28 277.74 382.24 306.22 376.44 311.91C376.44 311.91 376.44 311.91 376.44 311.91C350.31 286.28 335.79 272.04 332.89 269.19C332.89 269.19 332.89 269.19 332.89 269.19C385.15 217.93 414.18 189.45 419.99 183.75Z" id="e9vHBQcgQu"/><path d="M419.99 183.75C419.99 183.75 419.99 183.75 419.99 183.75C446.11 209.38 460.63 223.62 463.53 226.47C463.53 226.47 463.53 226.47 463.53 226.47C411.28 277.74 382.24 306.22 376.44 311.91C376.44 311.91 376.44 311.91 376.44 311.91C350.31 286.28 335.79 272.04 332.89 269.19C332.89 269.19 332.89 269.19 332.89 269.19C385.15 217.93 414.18 189.45 419.99 183.75Z" id="a1PNb3oN7h"/><path d="M419.99 183.75C419.99 183.75 419.99 183.75 419.99 183.75C446.11 209.38 460.63 223.62 463.53 226.47C463.53 226.47 463.53 226.47 463.53 226.47C411.28 277.74 382.24 306.22 376.44 311.91C376.44 311.91 376.44 311.91 376.44 311.91C350.31 286.28 335.79 272.04 332.89 269.19C332.89 269.19 332.89 269.19 332.89 269.19C385.15 217.93 414.18 189.45 419.99 183.75Z" id="fkzuTSYGr"/><path d="M419.99 183.75C419.99 183.75 419.99 183.75 419.99 183.75C446.11 209.38 460.63 223.62 463.53 226.47C463.53 226.47 463.53 226.47 463.53 226.47C411.28 277.74 382.24 306.22 376.44 311.91C376.44 311.91 376.44 311.91 376.44 311.91C350.31 286.28 335.79 272.04 332.89 269.19C332.89 269.19 332.89 269.19 332.89 269.19C385.15 217.93 414.18 189.45 419.99 183.75Z" id="bG4pD5KCY"/><path d="M289.38 226.4C289.38 226.4 289.38 226.4 289.38 226.4C315.51 200.76 330.03 186.52 332.93 183.68C332.93 183.68 332.93 183.68 332.93 183.68C385.19 234.94 414.22 263.42 420.02 269.12C420.02 269.12 420.02 269.12 420.02 269.12C393.9 294.75 379.38 308.99 376.48 311.83C376.48 311.83 376.48 311.83 376.48 311.83C324.22 260.57 295.19 232.09 289.38 226.4Z" id="b1p2DC5Kfq"/><path d="M289.38 226.4C289.38 226.4 289.38 226.4 289.38 226.4C315.51 200.76 330.03 186.52 332.93 183.68C332.93 183.68 332.93 183.68 332.93 183.68C385.19 234.94 414.22 263.42 420.02 269.12C420.02 269.12 420.02 269.12 420.02 269.12C393.9 294.75 379.38 308.99 376.48 311.83C376.48 311.83 376.48 311.83 376.48 311.83C324.22 260.57 295.19 232.09 289.38 226.4Z" id="a3BVqHh8IE"/><path d="M289.38 226.4C289.38 226.4 289.38 226.4 289.38 226.4C315.51 200.76 330.03 186.52 332.93 183.68C332.93 183.68 332.93 183.68 332.93 183.68C385.19 234.94 414.22 263.42 420.02 269.12C420.02 269.12 420.02 269.12 420.02 269.12C393.9 294.75 379.38 308.99 376.48 311.83C376.48 311.83 376.48 311.83 376.48 311.83C324.22 260.57 295.19 232.09 289.38 226.4Z" id="a1yvSvgaTY"/><path d="M289.38 226.4C289.38 226.4 289.38 226.4 289.38 226.4C315.51 200.76 330.03 186.52 332.93 183.68C332.93 183.68 332.93 183.68 332.93 183.68C385.19 234.94 414.22 263.42 420.02 269.12C420.02 269.12 420.02 269.12 420.02 269.12C393.9 294.75 379.38 308.99 376.48 311.83C376.48 311.83 376.48 311.83 376.48 311.83C324.22 260.57 295.19 232.09 289.38 226.4Z" id="cxLG1ShYG"/><path d="M419.96 225.71C419.96 225.71 419.96 225.71 419.96 225.71C446.08 251.34 460.6 265.58 463.5 268.43C463.5 268.43 463.5 268.43 463.5 268.43C411.25 319.69 382.22 348.17 376.41 353.87C376.41 353.87 376.41 353.87 376.41 353.87C350.28 328.24 335.77 314 332.86 311.15C332.86 311.15 332.86 311.15 332.86 311.15C385.12 259.88 414.15 231.4 419.96 225.71Z" id="acx8sLrRw"/><path d="M419.96 225.71C419.96 225.71 419.96 225.71 419.96 225.71C446.08 251.34 460.6 265.58 463.5 268.43C463.5 268.43 463.5 268.43 463.5 268.43C411.25 319.69 382.22 348.17 376.41 353.87C376.41 353.87 376.41 353.87 376.41 353.87C350.28 328.24 335.77 314 332.86 311.15C332.86 311.15 332.86 311.15 332.86 311.15C385.12 259.88 414.15 231.4 419.96 225.71Z" id="b6Lcl1dgM"/><path d="M419.96 225.71C419.96 225.71 419.96 225.71 419.96 225.71C446.08 251.34 460.6 265.58 463.5 268.43C463.5 268.43 463.5 268.43 463.5 268.43C411.25 319.69 382.22 348.17 376.41 353.87C376.41 353.87 376.41 353.87 376.41 353.87C350.28 328.24 335.77 314 332.86 311.15C332.86 311.15 332.86 311.15 332.86 311.15C385.12 259.88 414.15 231.4 419.96 225.71Z" id="b16onwx06b"/><path d="M419.96 225.71C419.96 225.71 419.96 225.71 419.96 225.71C446.08 251.34 460.6 265.58 463.5 268.43C463.5 268.43 463.5 268.43 463.5 268.43C411.25 319.69 382.22 348.17 376.41 353.87C376.41 353.87 376.41 353.87 376.41 353.87C350.28 328.24 335.77 314 332.86 311.15C332.86 311.15 332.86 311.15 332.86 311.15C385.12 259.88 414.15 231.4 419.96 225.71Z" id="d2Sb6kT1be"/><path d="M289.41 268.35C289.41 268.35 289.41 268.35 289.41 268.35C315.54 242.72 330.06 228.48 332.96 225.63C332.96 225.63 332.96 225.63 332.96 225.63C385.21 276.9 414.25 305.38 420.05 311.07C420.05 311.07 420.05 311.07 420.05 311.07C393.92 336.7 379.41 350.94 376.51 353.79C376.51 353.79 376.51 353.79 376.51 353.79C324.25 302.53 295.22 274.05 289.41 268.35Z" id="bhidn4TO"/><path d="M289.41 268.35C289.41 268.35 289.41 268.35 289.41 268.35C315.54 242.72 330.06 228.48 332.96 225.63C332.96 225.63 332.96 225.63 332.96 225.63C385.21 276.9 414.25 305.38 420.05 311.07C420.05 311.07 420.05 311.07 420.05 311.07C393.92 336.7 379.41 350.94 376.51 353.79C376.51 353.79 376.51 353.79 376.51 353.79C324.25 302.53 295.22 274.05 289.41 268.35Z" id="a1c5pGhuJy"/><path d="M289.41 268.35C289.41 268.35 289.41 268.35 289.41 268.35C315.54 242.72 330.06 228.48 332.96 225.63C332.96 225.63 332.96 225.63 332.96 225.63C385.21 276.9 414.25 305.38 420.05 311.07C420.05 311.07 420.05 311.07 420.05 311.07C393.92 336.7 379.41 350.94 376.51 353.79C376.51 353.79 376.51 353.79 376.51 353.79C324.25 302.53 295.22 274.05 289.41 268.35Z" id="b1YkyRDTv6"/><path d="M289.41 268.35C289.41 268.35 289.41 268.35 289.41 268.35C315.54 242.72 330.06 228.48 332.96 225.63C332.96 225.63 332.96 225.63 332.96 225.63C385.21 276.9 414.25 305.38 420.05 311.07C420.05 311.07 420.05 311.07 420.05 311.07C393.92 336.7 379.41 350.94 376.51 353.79C376.51 353.79 376.51 353.79 376.51 353.79C324.25 302.53 295.22 274.05 289.41 268.35Z" id="aSxoZwKpc"/><path d="M332.84 269.06L289.32 226.37L289.32 268.26L332.84 310.95L332.84 269.06Z" id="c1bFgyEvHQ"/><path d="M332.84 269.06L289.32 226.37L289.32 268.26L332.84 310.95L332.84 269.06Z" id="fQ13ekyn6"/><path d="M332.84 269.06L289.32 226.37L289.32 268.26L332.84 310.95L332.84 269.06Z" id="cfDcFu38H"/><path d="M332.84 269.06L289.32 226.37L289.32 268.26L332.84 310.95L332.84 269.06Z" id="b1LXBC79Ew"/><path d="M332.84 269.06L376.36 311.76L376.36 353.84L332.84 310.95L332.84 269.06Z" id="aoUPDbGgQ"/><path d="M332.84 269.06L376.36 311.76L376.36 353.84L332.84 310.95L332.84 269.06Z" id="c3RPYkMyEV"/><path d="M332.84 269.06L376.36 311.76L376.36 353.84L332.84 310.95L332.84 269.06Z" id="a11q2RcvFa"/><path d="M332.84 269.06L376.36 311.76L376.36 353.84L332.84 310.95L332.84 269.06Z" id="bthcJfXGJ"/><path d="M419.88 269.06L463.61 226.37L463.61 268.26L419.88 310.95L419.88 269.06Z" id="a2VyMPZ6NJ"/><path d="M419.88 269.06L463.61 226.37L463.61 268.26L419.88 310.95L419.88 269.06Z" id="j2dyVJQYV"/><path d="M419.88 269.06L463.61 226.37L463.61 268.26L419.88 310.95L419.88 269.06Z" id="a2CPGUPRsp"/><path d="M419.88 269.06L463.61 226.37L463.61 268.26L419.88 310.95L419.88 269.06Z" id="gjpKXAFmA"/><path d="M376.36 353.84L376.36 311.76L419.88 269.06L419.88 310.95L376.36 353.84Z" id="b54xpnUwp"/><path d="M376.36 353.84L376.36 311.76L419.88 269.06L419.88 310.95L376.36 353.84Z" id="b6Yd1mt07"/><path d="M376.36 353.84L376.36 311.76L419.88 269.06L419.88 310.95L376.36 353.84Z" id="b2H1xUdPO7"/><path d="M376.36 353.84L376.36 311.76L419.88 269.06L419.88 310.95L376.36 353.84Z" id="bDAnF0U3y"/><path d="M332.84 183.68L332.84 225.56" id="c1BXRA6beY"/><path d="M332.84 183.68L332.84 225.56" id="a282RqoEQn"/><path d="M332.84 183.68L332.84 225.56" id="fkwaAmpHs"/><path d="M332.84 183.68L332.84 225.56" id="d8UPASchB"/><path d="M419.88 183.68L419.88 225.56" id="m6wFTqwUFD"/><path d="M419.88 183.68L419.88 225.56" id="b1B1X2Chvd"/><path d="M419.88 183.68L419.88 225.56" id="a38rWvTKVY"/><path d="M419.88 183.68L419.88 225.56" id="a1BFmhCx5O"/><path d="M376.36 226.17L376.36 268.46" id="b3AhfkvAlj"/><path d="M376.36 226.17L376.36 268.46" id="a9t2ZpFG1"/><path d="M376.36 226.17L376.36 268.46" id="i1jz4MU5fK"/><path d="M376.36 226.17L376.36 268.46" id="a3bYGcq2p9"/><path d="M150.57 119.28C161.93 110.25 169.22 96.32 169.22 80.68C169.22 53.45 147.15 31.38 119.92 31.38C92.7 31.38 70.63 53.45 70.63 80.68C70.63 101.43 83.45 119.17 101.61 126.44C114.29 114.11 133.86 110.57 150.57 119.28Z" id="aAqHnhE7L"/><path d="M147.62 352.62C126.21 361.78 101.42 351.85 92.26 330.43C90.7 326.78 89.7 323.03 89.21 319.28C76.99 320.54 65.1 316.43 56.34 308.37C56.35 338.29 56.36 577.63 56.36 607.55C56.36 623.32 69.14 636.09 84.9 636.09C100.66 636.09 113.44 623.32 113.44 607.55C113.44 585.37 113.44 407.93 113.44 385.74C113.44 382.25 116.28 379.41 119.78 379.41C123.08 379.41 125.77 382.09 125.77 385.4C125.77 407.62 125.77 585.34 125.77 607.55C125.77 623.32 138.54 636.09 154.31 636.09C170.07 636.09 182.85 623.32 182.85 607.55C182.82 589.57 182.64 499.64 182.33 337.78C161.51 346.69 149.94 351.63 147.62 352.62Z" id="csUAyvbS"/><path d="M107.12 285.83C111.73 273.76 148.64 177.22 153.25 165.15C157.94 152.88 151.8 139.13 139.53 134.44C127.26 129.75 113.51 135.89 108.82 148.16C105.65 156.46 80.25 222.89 77.08 231.19C67.24 219.21 57.95 207.48 52.75 199.97C54.09 199.91 60.8 199.6 72.88 199.04C83.53 170.5 89.45 154.64 90.63 151.47C77.25 151.47 69.82 151.47 56.25 151.47C38.51 151.47 21.83 160.31 12.42 173.87C3.73 186.39 1.78 201.72 7.09 215.92C11.98 229.02 57.83 282.43 66.94 292.92C72.47 299.3 80.89 302.2 89.03 300.76C97.27 299.3 104.13 293.64 107.12 285.83Z" id="bPRvYUCL7"/><path d="M239.86 207.41C239.66 176.56 214.43 151.47 183.57 151.47C182.5 151.47 173.96 151.47 172.9 151.47C173.72 158.11 172.99 165.03 170.43 171.72C166.13 182.98 138.44 255.39 134.15 266.64C137.36 265.26 153.42 258.39 182.33 246.02C182.33 223.24 182.33 210.59 182.33 208.06C182.33 205.37 184.47 203.16 187.16 203.08C189.85 202.99 192.12 205.06 192.29 207.74C192.29 207.74 192.29 207.74 192.29 207.74C192.6 256.62 192.43 230.71 192.63 261.62C184.26 265.2 128.88 288.89 121.68 291.97C109.49 297.19 104.08 311.31 109.17 323.2C114.34 335.29 128.33 340.87 140.39 335.71C148.94 332.05 217.32 302.8 225.87 299.15C234.67 295.38 240.36 286.7 240.3 277.13C240.29 274.8 240.21 263.2 240.08 242.3L239.86 207.44C239.86 207.43 239.86 207.42 239.86 207.41Z" id="a1fsYuFr16"/></defs><g><g><use xlink:href="#bnF8NCLfl" opacity="1" fill="#ffffff" fill-opacity="0"/><g><use xlink:href="#bnF8NCLfl" opacity="1" fill-opacity="0" stroke="#000000" stroke-width="1" stroke-opacity="0"/></g></g><g><use xlink:href="#afaEEDJ5Q" opacity="1" fill="#000000" fill-opacity="0"/><g><use xlink:href="#afaEEDJ5Q" opacity="1" fill-opacity="0" stroke="#ffffff" stroke-width="2" stroke-opacity="1"/></g></g><g><g><use xlink:href="#c3ZvBUHCs" opacity="1" fill="#000000" fill-opacity="0"/><g><use xlink:href="#c3ZvBUHCs" opacity="1" fill-opacity="0" stroke="#000000" stroke-width="1" stroke-opacity="0"/></g></g><g><use xlink:href="#g3tKE9v3vl" opacity="1" fill="#000000" fill-opacity="0"/><g><use xlink:href="#g3tKE9v3vl" opacity="1" fill-opacity="0" stroke="#ffffff" stroke-width="2" stroke-opacity="1"/></g></g><g><use xlink:href="#b1Obe2cjKo" opacity="1" fill="#000000" fill-opacity="0"/><g><use xlink:href="#b1Obe2cjKo" opacity="1" fill-opacity="0" stroke="#000000" stroke-width="1" stroke-opacity="0"/></g></g><g><use xlink:href="#b4zWDA0ZL" opacity="1" fill="#000000" fill-opacity="0"/><g><use xlink:href="#b4zWDA0ZL" opacity="1" fill-opacity="0" stroke="#ffffff" stroke-width="2" stroke-opacity="1"/></g></g><g><use xlink:href="#e9vHBQcgQu" opacity="1" fill="#000000" fill-opacity="0"/><g><use xlink:href="#e9vHBQcgQu" opacity="1" fill-opacity="0" stroke="#000000" stroke-width="1" stroke-opacity="0"/></g></g><g><use xlink:href="#a1PNb3oN7h" opacity="1" fill="#000000" fill-opacity="0"/><g><use xlink:href="#a1PNb3oN7h" opacity="1" fill-opacity="0" stroke="#ffffff" stroke-width="1" stroke-opacity="0"/></g></g><g><use xlink:href="#fkzuTSYGr" opacity="1" fill="#000000" fill-opacity="0"/><g><use xlink:href="#fkzuTSYGr" opacity="1" fill-opacity="0" stroke="#000000" stroke-width="1" stroke-opacity="0"/></g></g><g><use xlink:href="#bG4pD5KCY" opacity="1" fill="#000000" fill-opacity="0"/><g><use xlink:href="#bG4pD5KCY" opacity="1" fill-opacity="0" stroke="#ffffff" stroke-width="2" stroke-opacity="0.62"/></g></g><g><use xlink:href="#b1p2DC5Kfq" opacity="1" fill="#000000" fill-opacity="0"/><g><use xlink:href="#b1p2DC5Kfq" opacity="1" fill-opacity="0" stroke="#000000" stroke-width="1" stroke-opacity="0"/></g></g><g><use xlink:href="#a3BVqHh8IE" opacity="1" fill="#000000" fill-opacity="0"/><g><use xlink:href="#a3BVqHh8IE" opacity="1" fill-opacity="0" stroke="#ffffff" stroke-width="1" stroke-opacity="0"/></g></g><g><use xlink:href="#a1yvSvgaTY" opacity="1" fill="#000000" fill-opacity="0"/><g><use xlink:href="#a1yvSvgaTY" opacity="1" fill-opacity="0" stroke="#000000" stroke-width="1" stroke-opacity="0"/></g></g><g><use xlink:href="#cxLG1ShYG" opacity="1" fill="#000000" fill-opacity="0"/><g><use xlink:href="#cxLG1ShYG" opacity="1" fill-opacity="0" stroke="#ffffff" stroke-width="2" stroke-opacity="0.62"/></g></g><g><use xlink:href="#acx8sLrRw" opacity="1" fill="#000000" fill-opacity="0"/><g><use xlink:href="#acx8sLrRw" opacity="1" fill-opacity="0" stroke="#000000" stroke-width="1" stroke-opacity="0"/></g></g><g><use xlink:href="#b6Lcl1dgM" opacity="1" fill="#000000" fill-opacity="0"/><g><use xlink:href="#b6Lcl1dgM" opacity="1" fill-opacity="0" stroke="#ffffff" stroke-width="1" stroke-opacity="0"/></g></g><g><use xlink:href="#b16onwx06b" opacity="1" fill="#000000" fill-opacity="0"/><g><use xlink:href="#b16onwx06b" opacity="1" fill-opacity="0" stroke="#000000" stroke-width="1" stroke-opacity="0"/></g></g><g><use xlink:href="#d2Sb6kT1be" opacity="1" fill="#000000" fill-opacity="0"/><g><use xlink:href="#d2Sb6kT1be" opacity="1" fill-opacity="0" stroke="#ffffff" stroke-width="2" stroke-opacity="0.62"/></g></g><g><use xlink:href="#bhidn4TO" opacity="1" fill="#000000" fill-opacity="0"/><g><use xlink:href="#bhidn4TO" opacity="1" fill-opacity="0" stroke="#000000" stroke-width="1" stroke-opacity="0"/></g></g><g><use xlink:href="#a1c5pGhuJy" opacity="1" fill="#000000" fill-opacity="0"/><g><use xlink:href="#a1c5pGhuJy" opacity="1" fill-opacity="0" stroke="#ffffff" stroke-width="1" stroke-opacity="0"/></g></g><g><use xlink:href="#b1YkyRDTv6" opacity="1" fill="#000000" fill-opacity="0"/><g><use xlink:href="#b1YkyRDTv6" opacity="1" fill-opacity="0" stroke="#000000" stroke-width="1" stroke-opacity="0"/></g></g><g><use xlink:href="#aSxoZwKpc" opacity="1" fill="#000000" fill-opacity="0"/><g><use xlink:href="#aSxoZwKpc" opacity="1" fill-opacity="0" stroke="#ffffff" stroke-width="2" stroke-opacity="0.62"/></g></g><g><use xlink:href="#c1bFgyEvHQ" opacity="1" fill="#000000" fill-opacity="0"/><g><use xlink:href="#c1bFgyEvHQ" opacity="1" fill-opacity="0" stroke="#000000" stroke-width="1" stroke-opacity="0"/></g></g><g><use xlink:href="#fQ13ekyn6" opacity="1" fill="#000000" fill-opacity="0"/><g><use xlink:href="#fQ13ekyn6" opacity="1" fill-opacity="0" stroke="#ffffff" stroke-width="1" stroke-opacity="0"/></g></g><g><use xlink:href="#cfDcFu38H" opacity="1" fill="#000000" fill-opacity="0"/><g><use xlink:href="#cfDcFu38H" opacity="1" fill-opacity="0" stroke="#000000" stroke-width="1" stroke-opacity="0"/></g></g><g><use xlink:href="#b1LXBC79Ew" opacity="1" fill="#000000" fill-opacity="0"/><g><use xlink:href="#b1LXBC79Ew" opacity="1" fill-opacity="0" stroke="#ffffff" stroke-width="2" stroke-opacity="0.62"/></g></g><g><use xlink:href="#aoUPDbGgQ" opacity="1" fill="#000000" fill-opacity="0"/><g><use xlink:href="#aoUPDbGgQ" opacity="1" fill-opacity="0" stroke="#000000" stroke-width="1" stroke-opacity="0"/></g></g><g><use xlink:href="#c3RPYkMyEV" opacity="1" fill="#000000" fill-opacity="0"/><g><use xlink:href="#c3RPYkMyEV" opacity="1" fill-opacity="0" stroke="#ffffff" stroke-width="1" stroke-opacity="0"/></g></g><g><use xlink:href="#a11q2RcvFa" opacity="1" fill="#000000" fill-opacity="0"/><g><use xlink:href="#a11q2RcvFa" opacity="1" fill-opacity="0" stroke="#000000" stroke-width="1" stroke-opacity="0"/></g></g><g><use xlink:href="#bthcJfXGJ" opacity="1" fill="#000000" fill-opacity="0"/><g><use xlink:href="#bthcJfXGJ" opacity="1" fill-opacity="0" stroke="#ffffff" stroke-width="2" stroke-opacity="0.62"/></g></g><g><use xlink:href="#a2VyMPZ6NJ" opacity="1" fill="#000000" fill-opacity="0"/><g><use xlink:href="#a2VyMPZ6NJ" opacity="1" fill-opacity="0" stroke="#000000" stroke-width="1" stroke-opacity="0"/></g></g><g><use xlink:href="#j2dyVJQYV" opacity="1" fill="#000000" fill-opacity="0"/><g><use xlink:href="#j2dyVJQYV" opacity="1" fill-opacity="0" stroke="#ffffff" stroke-width="1" stroke-opacity="0"/></g></g><g><use xlink:href="#a2CPGUPRsp" opacity="1" fill="#000000" fill-opacity="0"/><g><use xlink:href="#a2CPGUPRsp" opacity="1" fill-opacity="0" stroke="#000000" stroke-width="1" stroke-opacity="0"/></g></g><g><use xlink:href="#gjpKXAFmA" opacity="1" fill="#000000" fill-opacity="0"/><g><use xlink:href="#gjpKXAFmA" opacity="1" fill-opacity="0" stroke="#ffffff" stroke-width="2" stroke-opacity="0.62"/></g></g><g><use xlink:href="#b54xpnUwp" opacity="1" fill="#000000" fill-opacity="0"/><g><use xlink:href="#b54xpnUwp" opacity="1" fill-opacity="0" stroke="#000000" stroke-width="1" stroke-opacity="0"/></g></g><g><use xlink:href="#b6Yd1mt07" opacity="1" fill="#000000" fill-opacity="0"/><g><use xlink:href="#b6Yd1mt07" opacity="1" fill-opacity="0" stroke="#ffffff" stroke-width="1" stroke-opacity="0"/></g></g><g><use xlink:href="#b2H1xUdPO7" opacity="1" fill="#000000" fill-opacity="0"/><g><use xlink:href="#b2H1xUdPO7" opacity="1" fill-opacity="0" stroke="#000000" stroke-width="1" stroke-opacity="0"/></g></g><g><use xlink:href="#bDAnF0U3y" opacity="1" fill="#000000" fill-opacity="0"/><g><use xlink:href="#bDAnF0U3y" opacity="1" fill-opacity="0" stroke="#ffffff" stroke-width="2" stroke-opacity="0.62"/></g></g><g><use xlink:href="#c1BXRA6beY" opacity="1" fill="#000000" fill-opacity="0"/><g><use xlink:href="#c1BXRA6beY" opacity="1" fill-opacity="0" stroke="#000000" stroke-width="1" stroke-opacity="0"/></g></g><g><use xlink:href="#a282RqoEQn" opacity="1" fill="#000000" fill-opacity="0"/><g><use xlink:href="#a282RqoEQn" opacity="1" fill-opacity="0" stroke="#ffffff" stroke-width="1" stroke-opacity="0"/></g></g><g><use xlink:href="#fkwaAmpHs" opacity="1" fill="#000000" fill-opacity="0"/><g><use xlink:href="#fkwaAmpHs" opacity="1" fill-opacity="0" stroke="#000000" stroke-width="1" stroke-opacity="0"/></g></g><g><use xlink:href="#d8UPASchB" opacity="1" fill="#000000" fill-opacity="0"/><g><use xlink:href="#d8UPASchB" opacity="1" fill-opacity="0" stroke="#ffffff" stroke-width="2" stroke-opacity="0.62"/></g></g><g><use xlink:href="#m6wFTqwUFD" opacity="1" fill="#000000" fill-opacity="0"/><g><use xlink:href="#m6wFTqwUFD" opacity="1" fill-opacity="0" stroke="#000000" stroke-width="1" stroke-opacity="0"/></g></g><g><use xlink:href="#b1B1X2Chvd" opacity="1" fill="#000000" fill-opacity="0"/><g><use xlink:href="#b1B1X2Chvd" opacity="1" fill-opacity="0" stroke="#ffffff" stroke-width="1" stroke-opacity="0"/></g></g><g><use xlink:href="#a38rWvTKVY" opacity="1" fill="#000000" fill-opacity="0"/><g><use xlink:href="#a38rWvTKVY" opacity="1" fill-opacity="0" stroke="#000000" stroke-width="1" stroke-opacity="0"/></g></g><g><use xlink:href="#a1BFmhCx5O" opacity="1" fill="#000000" fill-opacity="0"/><g><use xlink:href="#a1BFmhCx5O" opacity="1" fill-opacity="0" stroke="#ffffff" stroke-width="2" stroke-opacity="0.62"/></g></g><g><use xlink:href="#b3AhfkvAlj" opacity="1" fill="#000000" fill-opacity="0"/><g><use xlink:href="#b3AhfkvAlj" opacity="1" fill-opacity="0" stroke="#000000" stroke-width="1" stroke-opacity="0"/></g></g><g><use xlink:href="#a9t2ZpFG1" opacity="1" fill="#000000" fill-opacity="0"/><g><use xlink:href="#a9t2ZpFG1" opacity="1" fill-opacity="0" stroke="#ffffff" stroke-width="1" stroke-opacity="0"/></g></g><g><use xlink:href="#i1jz4MU5fK" opacity="1" fill="#000000" fill-opacity="0"/><g><use xlink:href="#i1jz4MU5fK" opacity="1" fill-opacity="0" stroke="#000000" stroke-width="1" stroke-opacity="0"/></g></g><g><use xlink:href="#a3bYGcq2p9" opacity="1" fill="#000000" fill-opacity="0"/><g><use xlink:href="#a3bYGcq2p9" opacity="1" fill-opacity="0" stroke="#ffffff" stroke-width="2" stroke-opacity="0.62"/></g></g><g><g><use xlink:href="#aAqHnhE7L" opacity="1" fill="#000000" fill-opacity="0"/><g><use xlink:href="#aAqHnhE7L" opacity="1" fill-opacity="0" stroke="#ffffff" stroke-width="2" stroke-opacity="1"/></g></g><g><use xlink:href="#csUAyvbS" opacity="1" fill="#000000" fill-opacity="0"/><g><use xlink:href="#csUAyvbS" opacity="1" fill-opacity="0" stroke="#ffffff" stroke-width="2" stroke-opacity="1"/></g></g><g><use xlink:href="#bPRvYUCL7" opacity="1" fill="#000000" fill-opacity="0"/><g><use xlink:href="#bPRvYUCL7" opacity="1" fill-opacity="0" stroke="#ffffff" stroke-width="2" stroke-opacity="1"/></g></g><g><use xlink:href="#a1fsYuFr16" opacity="1" fill="#000000" fill-opacity="0"/><g><use xlink:href="#a1fsYuFr16" opacity="1" fill-opacity="0" stroke="#ffffff" stroke-width="2" stroke-opacity="1"/></g></g></g></g></g><style xmlns="" type="text/css" id="custom-page-zoom-css"/></svg>
