<svg id="Calque_1" data-name="Calque 1" xmlns="http://www.w3.org/2000/svg" viewBox="0 0 85.75 22.25"><title>Sans titre-2</title><path d="M6.71,6.91H4.32v7.67a3,3,0,0,0,.15,1,1.2,1.2,0,0,0,.46.59,1.63,1.63,0,0,0,.75.25,7.45,7.45,0,0,0,1,0v.71a7.64,7.64,0,0,1-1.21,0,2.43,2.43,0,0,1-1-.32,1.88,1.88,0,0,1-.71-.8,3,3,0,0,1-.22-1.47V6.91h-2V6.2h2V2.79h.81V6.2H6.71Z" style="fill:#ffffff"/><path d="M12.22,16.24h0l3-10h1.09l3,10h0l3.08-10h.9l-3.52,11h-1l-3-10h0l-3,10h-1L8.25,6.2h.88Z" style="fill:#ffffff"/><path d="M26.1,11.8v.13a6.5,6.5,0,0,0,.26,1.84,4.7,4.7,0,0,0,.76,1.54,3.61,3.61,0,0,0,1.26,1,3.87,3.87,0,0,0,1.77.38,3.77,3.77,0,0,0,2.61-.87,4.53,4.53,0,0,0,1.33-2.4h.81a4.91,4.91,0,0,1-1.57,2.95,4.76,4.76,0,0,1-3.19,1A4.84,4.84,0,0,1,28,17a4.32,4.32,0,0,1-1.52-1.2A5.07,5.07,0,0,1,25.59,14a8,8,0,0,1-.3-2.23,7.84,7.84,0,0,1,.31-2.21,5.53,5.53,0,0,1,.93-1.86,4.59,4.59,0,0,1,1.55-1.28,4.71,4.71,0,0,1,2.19-.48,4.65,4.65,0,0,1,2,.43,4.28,4.28,0,0,1,1.48,1.16,5.2,5.2,0,0,1,.91,1.71A6.84,6.84,0,0,1,35,11.33c0,.07,0,.15,0,.25s0,.17,0,.22Zm8.07-.71a6.57,6.57,0,0,0-.3-1.7A4.21,4.21,0,0,0,33.12,8,3.78,3.78,0,0,0,31.9,7a3.59,3.59,0,0,0-1.64-.36A3.84,3.84,0,0,0,28.52,7a3.94,3.94,0,0,0-1.26,1,4.38,4.38,0,0,0-.79,1.42,6.66,6.66,0,0,0-.34,1.67Z" style="fill:#ffffff"/><path d="M45.46,15h0a3.35,3.35,0,0,1-.56.93,3.94,3.94,0,0,1-.89.78,4.42,4.42,0,0,1-1.19.53,5.2,5.2,0,0,1-1.45.19,4.29,4.29,0,0,1-2.71-.76,2.8,2.8,0,0,1-1-2.34A2.74,2.74,0,0,1,39,11.81a4.15,4.15,0,0,1,1.3-.5,12.82,12.82,0,0,1,1.38-.21L43,11a7.45,7.45,0,0,0,1.38-.2,1.76,1.76,0,0,0,.76-.38,1.09,1.09,0,0,0,.32-.63,6,6,0,0,0,.06-1A2,2,0,0,0,45.3,8a1.86,1.86,0,0,0-.53-.68,2.66,2.66,0,0,0-.94-.47,5,5,0,0,0-1.41-.17A3.7,3.7,0,0,0,40,7.38a2.87,2.87,0,0,0-1,2.2h-.81A3.6,3.6,0,0,1,39.4,6.86a4.63,4.63,0,0,1,3.06-.91,4.4,4.4,0,0,1,2.89.78,2.56,2.56,0,0,1,.91,2v6.39c0,.16,0,.31,0,.47a1.56,1.56,0,0,0,.07.43.64.64,0,0,0,.21.31.68.68,0,0,0,.43.12,4,4,0,0,0,.6-.06v.68a2.58,2.58,0,0,1-.66.08,2,2,0,0,1-.78-.13,1,1,0,0,1-.44-.34,1.26,1.26,0,0,1-.2-.5,3.51,3.51,0,0,1-.05-.63Zm0-4.06a1.54,1.54,0,0,1-.91.49,11.27,11.27,0,0,1-1.36.19l-1.37.13q-.6.06-1.2.18a3.46,3.46,0,0,0-1.08.4,2.2,2.2,0,0,0-.78.76,2.34,2.34,0,0,0-.3,1.25,2.13,2.13,0,0,0,.77,1.8,3.4,3.4,0,0,0,2.11.59,4.17,4.17,0,0,0,2.2-.5,3.89,3.89,0,0,0,1.24-1.15,3.53,3.53,0,0,0,.54-1.26,5.44,5.44,0,0,0,.12-.82Z" style="fill:#ffffff"/><path d="M59.19,6.2v10.4A7.46,7.46,0,0,1,59,18.39a4,4,0,0,1-.74,1.53A3.61,3.61,0,0,1,56.8,21a5.92,5.92,0,0,1-2.32.39,7.11,7.11,0,0,1-1.64-.18,4,4,0,0,1-1.34-.58,2.94,2.94,0,0,1-.93-1A3.72,3.72,0,0,1,50.18,18H51a2.94,2.94,0,0,0,.36,1.24,2.6,2.6,0,0,0,.78.84,3.28,3.28,0,0,0,1.08.48,5.27,5.27,0,0,0,1.28.15,4.61,4.61,0,0,0,1.89-.34,3.27,3.27,0,0,0,1.21-.89,3.19,3.19,0,0,0,.63-1.24,5.55,5.55,0,0,0,.18-1.4V14.28h-.06a4.36,4.36,0,0,1-1.57,1.86,4.32,4.32,0,0,1-2.4.64,4.9,4.9,0,0,1-2.1-.42,4.05,4.05,0,0,1-1.47-1.15,5,5,0,0,1-.87-1.72,7.59,7.59,0,0,1-.29-2.14A6.84,6.84,0,0,1,50,9.28a5.14,5.14,0,0,1,.91-1.72,4.38,4.38,0,0,1,1.48-1.17,4.81,4.81,0,0,1,4.44.22,3.68,3.68,0,0,1,1.57,1.88h0V6.2Zm-4.81.45a3.55,3.55,0,0,0-1.74.41,3.67,3.67,0,0,0-1.22,1.07,4.83,4.83,0,0,0-.73,1.51,6.11,6.11,0,0,0-.25,1.72,6.65,6.65,0,0,0,.25,1.83,4.32,4.32,0,0,0,.75,1.51,3.66,3.66,0,0,0,1.24,1,3.7,3.7,0,0,0,1.7.37,3.78,3.78,0,0,0,1.75-.38,3.65,3.65,0,0,0,1.25-1,4.61,4.61,0,0,0,.75-1.51,6.55,6.55,0,0,0,0-3.56,4.48,4.48,0,0,0-.75-1.51,3.69,3.69,0,0,0-1.25-1A3.78,3.78,0,0,0,54.38,6.65Z" style="fill:#ffffff"/><path d="M64.1,15h1.09v2.2H64.1Z" style="fill:#ffffff"/><path d="M70.3,4.13V1.93h.81v2.2Zm0,13.05V6.2h.81v11Z" style="fill:#ffffff"/><path d="M74.46,11.69a7.22,7.22,0,0,1,.33-2.21,5.55,5.55,0,0,1,1-1.83,4.62,4.62,0,0,1,1.58-1.25,5.3,5.3,0,0,1,4.31,0,4.62,4.62,0,0,1,1.58,1.25,5.55,5.55,0,0,1,1,1.83,7.22,7.22,0,0,1,.33,2.21,7.32,7.32,0,0,1-.33,2.22,5.43,5.43,0,0,1-1,1.83A4.67,4.67,0,0,1,81.66,17a5.3,5.3,0,0,1-4.31,0,4.67,4.67,0,0,1-1.58-1.24,5.43,5.43,0,0,1-1-1.83A7.32,7.32,0,0,1,74.46,11.69Zm.81,0a6.44,6.44,0,0,0,.28,1.89,5.13,5.13,0,0,0,.81,1.61,3.94,3.94,0,0,0,1.32,1.12,4.16,4.16,0,0,0,3.63,0,4,4,0,0,0,1.32-1.12,5.11,5.11,0,0,0,.81-1.61,6.56,6.56,0,0,0,0-3.78,5.12,5.12,0,0,0-.81-1.61,4,4,0,0,0-1.32-1.12,4.16,4.16,0,0,0-3.63,0,3.94,3.94,0,0,0-1.32,1.12,5.14,5.14,0,0,0-.81,1.61A6.45,6.45,0,0,0,75.27,11.69Z" style="fill:#ffffff"/></svg>
